<svg viewBox="0 0 400 187.44769874476987" xmlns="http://www.w3.org/2000/svg">
<title>CER Logo</title>
<alt>CER Logo</alt>
<g>
<path id="path0" d="M5.858 93.724 L 5.858 181.590 56.067 181.590 L 106.276 181.590 106.276 170.711 L 106.276 159.833 66.946 159.833 L 27.615 159.833 27.615 93.724 L 27.615 27.615 66.946 27.615 L 106.276 27.615 106.276 16.736 L 106.276 5.858 56.067 5.858 L 5.858 5.858 5.858 93.724 M149.791 16.736 L 149.791 27.615 200.000 27.615 L 250.209 27.615 250.209 16.736 L 250.209 5.858 200.000 5.858 L 149.791 5.858 149.791 16.736 M293.724 16.736 L 293.724 27.615 333.054 27.615 L 372.385 27.615 372.385 55.230 L 372.385 82.845 333.054 82.845 L 293.724 82.845 293.724 93.724 L 293.724 104.603 314.033 104.603 L 334.343 104.603 342.678 121.339 L 351.013 138.075 361.699 138.075 C 367.576 138.075,372.385 137.883,372.385 137.649 C 372.385 137.414,368.808 130.074,364.435 121.339 C 360.063 112.603,356.485 105.264,356.485 105.029 C 356.485 104.795,364.958 104.603,375.314 104.603 L 394.142 104.603 394.142 55.230 L 394.142 5.858 343.933 5.858 L 293.724 5.858 293.724 16.736 M149.791 93.724 L 149.791 104.603 200.000 104.603 L 250.209 104.603 250.209 93.724 L 250.209 82.845 200.000 82.845 L 149.791 82.845 149.791 93.724 M149.791 170.711 L 149.791 181.590 200.000 181.590 L 250.209 181.590 250.209 170.711 L 250.209 159.833 200.000 159.833 L 149.791 159.833 149.791 170.711 M362.343 160.243 C 362.343 160.468,364.690 165.363,367.558 171.121 L 372.772 181.590 383.457 181.590 C 389.334 181.590,394.142 181.406,394.142 181.180 C 394.142 180.955,391.796 176.059,388.928 170.301 L 383.713 159.833 373.028 159.833 C 367.151 159.833,362.343 160.017,362.343 160.243"/>
</g>
</svg>